<?xml version="1.0" encoding="utf-8"?>
<!-- Generator: Adobe Illustrator 22.1.0, SVG Export Plug-In . SVG Version: 6.00 Build 0)  -->
<svg version="1.1" id="Layer_1" xmlns="http://www.w3.org/2000/svg" xmlns:xlink="http://www.w3.org/1999/xlink" x="0px" y="0px"
	 viewBox="0 0 141 36" style="enable-background:new 0 0 141 36;" xml:space="preserve">
<style type="text/css">
	.st0{fill:#28333E;}
	.st1{fill-rule:evenodd;clip-rule:evenodd;fill:#E5305C;}
	.st2{fill-rule:evenodd;clip-rule:evenodd;fill:#28333E;}
</style>
<g>
	<g>
		<path class="st0" d="M36.6,22.8c0-0.5,0.8-2,2.4-4.4c-0.6-0.1-1.1-0.4-1.4-0.7c-0.4-0.3-0.7-0.7-0.7-1.1c0-0.4,0.1-0.7,0.3-0.8
			c0.2-0.2,0.3-0.2,0.3-0.1c0,0.1,0,0.1-0.1,0.3c-0.1,0.1-0.1,0.2-0.1,0.4c0,0.5,0.2,0.8,0.6,1.1c0.4,0.3,0.8,0.5,1.4,0.6
			c1.1-1.7,2.3-3.3,3.4-4.8c1.1-1.5,1.8-2.2,2-2.2c0.1,0,0.2,0.1,0.2,0.2s0.1,0.2,0.1,0.3c-1.8,2.3-3.5,4.5-5,6.6c0.1,0,0.3,0,0.5,0
			c1.3,0,2.8-0.3,4.6-0.9c1.8-0.6,3.1-1.2,4-1.8c0.9-0.6,1.6-1.2,2-1.9c0.4-0.6,0.7-1.2,0.7-1.8c0-0.5-0.2-1-0.5-1.4
			c-0.3-0.4-0.8-0.7-1.4-0.9c-0.6-0.2-1.1-0.2-1.6-0.2c-1.6,0-3.4,0.3-5.3,1c-2,0.6-3.4,1.3-4.1,1.9c-0.2,0.2-0.3,0.3-0.3,0.5
			c0.1,0.1,0.1,0.2,0,0.2c0,0-0.1,0-0.2-0.1c-0.3-0.2-0.5-0.4-0.6-0.7c-0.1-0.3-0.1-0.5-0.1-0.6c0-0.1,0-0.2,0.1-0.3
			c0.5-0.8,1.8-1.5,3.8-2.1c2-0.7,3.9-1.1,5.9-1.3c0.3,0,0.8,0,1.3,0s1.1,0.1,1.8,0.3c0.7,0.2,1.2,0.5,1.6,1c0.5,0.6,0.7,1.2,0.7,2
			c0,1.1-0.5,2.2-1.4,3.3c-0.6,0.6-1.2,1.2-2,1.6c-1.2,0.7-2.7,1.3-4.4,1.8c-1.7,0.5-3.2,0.8-4.4,0.8c-0.3,0-0.6,0-0.9,0
			c-1.3,1.9-2.1,3.2-2.5,4.2c-0.1,0.2-0.2,0.3-0.4,0.3S36.6,22.9,36.6,22.8z"/>
		<path class="st0" d="M52.8,16.7c-0.6,0.6-1.1,1.4-1.5,2.3c-0.4,0.9-0.6,1.6-0.6,2c0,0.4,0.1,0.6,0.4,0.6c0.3,0,0.8-0.2,1.5-0.7
			c0.7-0.4,1.5-1.1,2.4-1.9c0.2-0.2,0.3-0.2,0.3,0.1c0,0,0,0.1,0,0.1c-0.7,0.6-1.3,1.1-1.8,1.5c-0.5,0.4-1,0.8-1.7,1.1
			s-1.2,0.5-1.6,0.5c-0.5,0-0.9-0.1-1.2-0.3c-0.3-0.2-0.4-0.5-0.4-0.8c0-0.5,0.1-0.9,0.3-1.2s0.5-0.7,1-1.3
			c-0.2,0.1-0.4,0.3-0.8,0.7c-0.3,0.3-0.6,0.5-0.7,0.6c-0.1,0.1-0.2,0.1-0.2-0.1c0-0.1,0.1-0.2,0.3-0.4c0.2-0.2,0.7-0.7,1.5-1.4
			c0.8-0.8,1.3-1.2,1.6-1.4c0.3-0.1,0.5-0.2,0.7-0.2c0.2,0,0.3,0,0.4,0.1C52.8,16.6,52.9,16.7,52.8,16.7z M53.1,15.6
			c-0.2-0.1-0.2-0.3-0.2-0.6c0-0.2,0.2-0.5,0.4-0.8c0.2-0.3,0.5-0.4,0.9-0.4c0.1,0,0.2,0.1,0.4,0.2c0.1,0.1,0.2,0.3,0.2,0.5
			c0,0.3-0.1,0.5-0.3,0.7s-0.4,0.4-0.7,0.4C53.5,15.8,53.3,15.7,53.1,15.6z"/>
		<path class="st0" d="M57.2,17.7c0,0.8-0.4,2.1-1.3,3.8s-1.7,3-2.4,3.8c-0.8,0.8-1.7,1.5-2.9,2.1c-1.2,0.6-2.3,0.9-3.4,0.9
			c-1.1,0-2-0.3-2.8-0.8C43.4,26.9,43,26,43,25.1c0-0.1,0-0.1,0.1-0.1c0.1,0,0.1,0.1,0.1,0.1c0.1,0.8,0.5,1.5,1.2,2
			c0.6,0.5,1.4,0.8,2.3,0.8c0.9,0,2-0.5,3.3-1.5c1.3-1,2.5-2.3,3.5-3.7c1.1-1.4,1.9-2.8,2.5-4.1c-0.2,0.3-0.6,0.7-1.2,1.1
			c0,0-0.1,0-0.1,0c-0.1-0.1-0.1-0.2,0-0.3c1-0.8,1.6-1.6,1.7-2.3c0-0.2-0.1-0.4-0.3-0.4c-0.1,0-0.1-0.1,0-0.2
			c0.1,0,0.1-0.1,0.2-0.1c0.4,0,0.7,0.3,0.8,0.8C57.2,17.3,57.2,17.5,57.2,17.7z M57.2,15.6C57,15.5,57,15.3,57,15
			c0-0.2,0.2-0.5,0.4-0.8c0.2-0.3,0.5-0.4,0.9-0.4c0.1,0,0.2,0.1,0.3,0.2c0.1,0.1,0.2,0.2,0.2,0.3c0,0.1,0,0.2,0,0.4
			c0,0.1-0.1,0.3-0.3,0.6c-0.2,0.2-0.4,0.4-0.7,0.4C57.6,15.8,57.4,15.7,57.2,15.6z"/>
		<path class="st0" d="M66.1,18.9c-0.2,0.2-0.3,0.4-0.5,0.6c-0.2,0.2-0.4,0.5-0.6,0.9c-0.3,0.4-0.4,0.7-0.4,1c0,0.3,0.1,0.4,0.3,0.4
			c0.2,0,0.6-0.1,1.1-0.4c1-0.6,2.1-1.5,3.4-2.6c0.1-0.1,0.2-0.2,0.3-0.1c0,0,0,0,0,0.1c0,0,0,0.1-0.1,0.2c-2.5,2.4-4.3,3.5-5.4,3.5
			c-0.3,0-0.6-0.1-0.8-0.3s-0.3-0.5-0.3-0.8c0-0.3,0.1-0.8,0.4-1.4c-0.7,0.8-1.4,1.4-2.1,1.9c-0.7,0.4-1.3,0.7-1.8,0.7
			s-0.8-0.1-1.1-0.4c-0.3-0.3-0.4-0.6-0.4-0.9c0-1.1,0.5-2.1,1.4-3.2c0.7-0.8,1.6-1.3,2.7-1.6c0.5-0.2,0.9-0.2,1.4-0.2
			c0.5,0,0.9,0.1,1.3,0.4c0.4,0.3,0.7,0.6,0.8,0.9c0.4,0,0.7,0.2,0.9,0.5c0,0,0,0.1,0,0.2s-0.1,0.2-0.2,0.3
			C66.4,18.5,66.2,18.7,66.1,18.9z M64.5,16.7c-0.3,0-0.7,0.1-1.1,0.3c-0.7,0.3-1.4,0.9-2.1,1.7c-1.1,1.2-1.6,2.2-1.6,2.7
			c0,0.3,0.1,0.5,0.4,0.5c0.2,0,0.5-0.1,1-0.4c0.5-0.3,1.1-0.8,1.9-1.5c0,0,0.2-0.2,0.5-0.5c0.3-0.3,0.5-0.5,0.7-0.7
			c0.7-0.7,1-1.2,1-1.5S65,16.7,64.5,16.7z"/>
		<path class="st0" d="M78.7,17.4c0,0.5-0.5,1.4-1.4,2.7c-0.6,0.7-0.8,1.2-0.8,1.4c0,0.2,0.1,0.3,0.3,0.3c0.2,0,0.4-0.1,0.8-0.3
			c0.8-0.6,1.7-1.2,2.5-2c0.1-0.1,0.2-0.1,0.2-0.1c0,0.1,0.1,0.1,0.1,0.1c0,0-0.2,0.2-0.5,0.5c-0.3,0.3-0.7,0.6-1.1,1
			c-0.4,0.3-0.9,0.7-1.4,1c-0.6,0.4-1.1,0.5-1.4,0.5c-0.8,0-1.2-0.3-1.2-1c0-0.2,0-0.5,0.1-0.9c0.2-0.6,1-1.7,2.5-3.3
			c0.2-0.2,0.3-0.4,0.3-0.5c0-0.1-0.1-0.2-0.4-0.2c-0.3,0-0.7,0.3-1.4,0.8c-0.2,0.2-0.5,0.4-0.8,0.8c-0.3,0.3-0.7,0.9-1.1,1.6
			c-0.4,0.8-0.7,1.4-0.9,2c-0.1,0.3-0.3,0.4-0.5,0.4c-0.1,0-0.1,0-0.2,0c-0.3-0.1-0.4-0.2-0.3-0.4c1.1-2,1.8-3.3,2-3.8
			c0.2-0.5,0.3-0.9,0.3-1.1c0-0.2-0.1-0.3-0.3-0.3c-0.8,0-1.9,1.3-3.3,3.8c-0.5,0.8-0.9,1.4-1.3,1.7c-0.3,0.3-0.6,0.5-0.9,0.5
			c0,0-0.1,0-0.1,0c-0.4,0-0.7-0.2-1.1-0.5c0.1-0.1,0.3-0.4,0.6-0.8c0.7-0.9,1.4-1.8,1.9-2.6c-0.6,0.6-1.2,1.1-1.6,1.5
			c-0.1,0.1-0.2,0.1-0.2,0c0-0.1,0-0.2,0.1-0.3c0.1-0.1,0.2-0.2,0.4-0.4c0.2-0.2,0.3-0.3,0.4-0.4c0.1-0.1,0.2-0.2,0.4-0.3
			c0.2-0.2,0.3-0.3,0.4-0.4c0.4-0.5,0.7-0.9,0.9-1.2c0.1-0.2,0.1-0.3,0.1-0.5c0-0.2,0-0.3-0.1-0.3c-0.1-0.1-0.1-0.1-0.1-0.2
			c0-0.1,0.1-0.2,0.2-0.2c0.1,0,0.1,0,0.2,0c0.4,0.2,0.7,0.6,0.7,1.3c0,0.4-0.1,0.8-0.2,1.3c0.3-0.4,0.6-0.9,0.9-1.3
			c0.6-0.8,1.2-1.2,1.8-1.2c0.4,0,0.6,0.2,0.6,0.7c0,0.4-0.3,1.2-0.9,2.3c0.6-0.8,1.1-1.4,1.4-1.7c0.8-0.8,1.5-1.2,2.2-1.2
			c0.8,0,1.2,0.3,1.3,1C78.7,17.3,78.7,17.3,78.7,17.4z"/>
		<path class="st0" d="M83.7,14.8c0.3-0.5,0.6-0.9,0.8-1.1c0.2-0.3,0.4-0.5,0.5-0.6c0.1-0.1,0.4-0.2,0.8-0.3
			c0.4-0.1,0.8-0.1,1.2-0.1s0.6,0,0.6,0.1c0,0.1-0.3,0.4-0.9,1c-0.6,0.6-1.3,1.4-2.2,2.4c1,0.2,1.6,0.5,1.9,0.9
			c0.1,0.2,0.1,0.3,0.1,0.4c-0.1,0.1-0.2,0-0.3-0.1c-0.3-0.3-0.8-0.5-1.5-0.5c-0.3,0-0.6,0-1,0.1c-1.2,1.5-1.9,2.7-2.2,3.7
			c-0.1,0.3-0.2,0.5-0.2,0.7c0,0.5,0.2,0.8,0.6,0.8c0.4,0,1.1-0.3,1.9-0.9c1.1-0.8,2-1.6,2.8-2.4c0.1-0.2,0.2-0.2,0.3-0.1
			c0,0.1,0,0.2-0.1,0.3c-1.2,1.3-2.3,2.3-3.1,2.9c-0.8,0.6-1.6,0.9-2.3,0.9c-1,0-1.5-0.5-1.5-1.5c0-0.5,0.1-1.1,0.4-1.8l-0.4,0.4
			c-0.1,0.1-0.2,0.2-0.2,0.1c-0.1,0-0.1-0.1-0.1-0.1c0,0,0.1-0.1,0.2-0.2c1.1-0.9,1.8-1.6,2.2-2.1c-0.3,0.1-0.5,0.1-0.6,0
			c-0.1-0.1-0.2-0.2-0.2-0.3c0-0.1,0-0.3,0.2-0.5c0.2-0.2,0.4-0.4,0.8-0.5c0.4-0.1,0.6-0.1,0.8-0.2C83.2,15.6,83.4,15.2,83.7,14.8z"
			/>
		<path class="st0" d="M90,16.7c-0.6,0.6-1.1,1.4-1.5,2.3c-0.4,0.9-0.6,1.6-0.6,2c0,0.4,0.1,0.6,0.4,0.6s0.8-0.2,1.5-0.7
			c0.7-0.4,1.5-1.1,2.4-1.9c0.2-0.2,0.3-0.2,0.3,0.1c0,0,0,0.1,0,0.1c-0.7,0.6-1.3,1.1-1.8,1.5c-0.5,0.4-1,0.8-1.7,1.1
			c-0.7,0.4-1.2,0.5-1.6,0.5c-0.5,0-0.9-0.1-1.2-0.3c-0.3-0.2-0.4-0.5-0.4-0.8c0-0.5,0.1-0.9,0.3-1.2c0.2-0.3,0.5-0.7,1-1.3
			c-0.2,0.1-0.4,0.3-0.8,0.7c-0.3,0.3-0.6,0.5-0.7,0.6c-0.1,0.1-0.2,0.1-0.2-0.1c0-0.1,0.1-0.2,0.3-0.4c0.2-0.2,0.7-0.7,1.5-1.4
			s1.3-1.2,1.6-1.4c0.3-0.1,0.5-0.2,0.7-0.2s0.3,0,0.4,0.1C90,16.6,90,16.7,90,16.7z M90.3,15.6c-0.2-0.1-0.2-0.3-0.2-0.6
			c0-0.2,0.2-0.5,0.4-0.8c0.2-0.3,0.5-0.4,0.9-0.4c0.1,0,0.2,0.1,0.4,0.2c0.1,0.1,0.2,0.3,0.2,0.5c0,0.3-0.1,0.5-0.3,0.7
			s-0.4,0.4-0.7,0.4C90.6,15.8,90.4,15.7,90.3,15.6z"/>
	</g>
	<g>
		<path class="st0" d="M92.8,22.6c-0.2,0-0.3-0.1-0.5-0.2c-0.1-0.1-0.2-0.2-0.2-0.4c0-0.4,0.1-0.8,0.4-1c0.3-0.4,0.7-0.5,1.1-0.5
			c0.2,0,0.3,0.1,0.4,0.2c0.1,0.1,0.2,0.3,0.2,0.6s-0.1,0.6-0.4,0.9C93.5,22.5,93.1,22.6,92.8,22.6z"/>
		<path class="st0" d="M107.1,17.6c0,0.5-0.5,1.4-1.4,2.7c-0.6,0.7-0.8,1.2-0.8,1.4c0,0.2,0.1,0.3,0.3,0.3c0.2,0,0.4-0.1,0.8-0.3
			c0.8-0.6,1.7-1.2,2.5-2c0.1-0.1,0.2-0.1,0.2-0.1c0,0.1,0.1,0.1,0.1,0.1c0,0-0.2,0.2-0.5,0.5c-0.3,0.3-0.7,0.6-1.1,1
			c-0.4,0.3-0.9,0.7-1.4,1c-0.6,0.4-1.1,0.5-1.4,0.5c-0.8,0-1.2-0.3-1.2-1c0-0.2,0-0.5,0.1-0.9c0.2-0.6,1-1.7,2.5-3.3
			c0.2-0.2,0.3-0.4,0.3-0.5c0-0.1-0.1-0.2-0.4-0.2c-0.3,0-0.7,0.3-1.4,0.8c-0.2,0.2-0.5,0.4-0.8,0.8c-0.3,0.3-0.7,0.9-1.1,1.6
			c-0.4,0.8-0.7,1.4-0.9,2c-0.1,0.3-0.3,0.4-0.5,0.4c-0.1,0-0.1,0-0.2,0c-0.3-0.1-0.4-0.2-0.3-0.4c1.1-2,1.8-3.3,2-3.8
			c0.2-0.5,0.3-0.9,0.3-1.1c0-0.2-0.1-0.3-0.3-0.3c-0.8,0-1.9,1.3-3.3,3.8c-0.5,0.8-0.9,1.4-1.3,1.7c-0.3,0.3-0.6,0.5-0.9,0.5
			c0,0-0.1,0-0.1,0c-0.4,0-0.7-0.2-1.1-0.5c0.1-0.1,0.3-0.4,0.6-0.8c0.7-0.9,1.4-1.8,1.9-2.6c-0.6,0.6-1.2,1.1-1.6,1.5
			c-0.1,0.1-0.2,0.1-0.2,0c0-0.1,0-0.2,0.1-0.3c0.1-0.1,0.2-0.2,0.4-0.4s0.3-0.3,0.4-0.4c0.1-0.1,0.2-0.2,0.4-0.3
			c0.2-0.2,0.3-0.3,0.4-0.4c0.4-0.5,0.7-0.9,0.9-1.2c0.1-0.2,0.1-0.3,0.1-0.5c0-0.2,0-0.3-0.1-0.3c-0.1-0.1-0.1-0.1-0.1-0.2
			c0-0.1,0.1-0.2,0.2-0.2c0.1,0,0.1,0,0.2,0c0.4,0.2,0.7,0.6,0.7,1.3c0,0.4-0.1,0.8-0.2,1.3c0.3-0.4,0.6-0.9,0.9-1.3
			c0.6-0.8,1.2-1.2,1.8-1.2c0.4,0,0.6,0.2,0.6,0.7c0,0.4-0.3,1.2-0.9,2.3c0.6-0.8,1.1-1.4,1.4-1.7c0.8-0.8,1.5-1.2,2.2-1.2
			c0.8,0,1.2,0.3,1.3,1C107.1,17.5,107.1,17.6,107.1,17.6z"/>
		<path class="st0" d="M117.6,19.1c-0.2,0.2-0.3,0.4-0.5,0.6c-0.2,0.2-0.4,0.5-0.6,0.9c-0.3,0.4-0.4,0.7-0.4,1s0.1,0.4,0.3,0.4
			c0.2,0,0.6-0.1,1.1-0.4c1-0.6,2.1-1.5,3.4-2.6c0.1-0.1,0.2-0.2,0.3-0.1c0,0,0,0,0,0.1c0,0,0,0.1-0.1,0.2c-2.5,2.4-4.3,3.5-5.4,3.5
			c-0.3,0-0.6-0.1-0.8-0.3c-0.2-0.2-0.3-0.5-0.3-0.8c0-0.3,0.1-0.8,0.4-1.4c-0.7,0.8-1.4,1.4-2.1,1.9c-0.7,0.4-1.3,0.7-1.8,0.7
			c-0.4,0-0.8-0.1-1.1-0.4c-0.3-0.3-0.4-0.6-0.4-0.9c0-1.1,0.5-2.1,1.4-3.2c0.7-0.8,1.6-1.3,2.7-1.6c0.5-0.2,0.9-0.2,1.4-0.2
			c0.5,0,0.9,0.1,1.3,0.4c0.4,0.3,0.7,0.6,0.8,0.9c0.4,0,0.7,0.2,0.9,0.5c0,0,0,0.1,0,0.2s-0.1,0.2-0.2,0.3
			C117.9,18.8,117.8,19,117.6,19.1z M116.1,17c-0.3,0-0.7,0.1-1.1,0.3c-0.7,0.3-1.4,0.9-2.1,1.7c-1.1,1.2-1.6,2.2-1.6,2.7
			c0,0.3,0.1,0.5,0.4,0.5c0.2,0,0.5-0.1,1-0.4c0.5-0.3,1.1-0.8,1.9-1.5c0,0,0.2-0.2,0.5-0.5c0.3-0.3,0.5-0.5,0.7-0.7
			c0.7-0.7,1-1.2,1-1.5S116.5,17,116.1,17z"/>
	</g>
	<g>
		<g>
			<path class="st1" d="M24.3,5.8c0,0,0.4,0.3,0.8,1c0.4,0.8-0.6,1.4-0.9,2.1c-0.3,0.7,0.8,1.1,0.5,3.3c-0.3,2.2-3.6,6-4.7,10.6
				c-1.2,4.6,1.8,12.3,1.8,12.3s3-4.9,8.1-4.4c5.1,0.6,10.9-3,10.9-3s-5.6-1.1-8.8-6.7c-3.3-5.6-3.7-6.6-2.6-9.2
				c1.2-2.6,1.7-4.6,0.8-5.5c-0.9-1-1.7,0-3.4-0.4C25.1,5.6,23.7,5.5,24.3,5.8L24.3,5.8z"/>
		</g>
		<g>
			<path class="st2" d="M26.4,4.4c-0.5,0.3-1.1,0.6-1.6,0.5c-1.1-0.1-1.2-0.5-1.2-0.7c0.1-0.2,0.4-0.1,0.5-0.2
				c0.1-0.1-0.2-0.5-0.6-0.2S23.4,5,24.2,5.1c0.8,0.2,1.8-0.1,2.5-0.6c0.7-0.5,1.1-0.3,1.3,0c0.3,0.3,1.2,1.2,2.2,0.9
				c1.1-0.3,1-1.1,0.8-1.2c-0.2-0.2-0.7-0.1-0.6,0.2c0.1,0.2,0.3,0.1,0.3,0.4c0,0.2-0.9,0.6-1.5,0.3c-0.6-0.3-1.4-1.1-1.4-1.6
				c-0.1-0.5,0.4-0.9,0.5-1.4c0.1-0.5-0.1-0.9-0.7-1.1c-0.6-0.2-1.2,0.5-0.9,1c0.3,0.5,1,0.2,0.9,0c-0.2-0.3-0.4-0.2-0.3-0.4
				c0-0.2,0.8-0.3,0.8,0.2c0.1,0.6-0.4,1-0.6,1.3C27.1,3.7,26.8,4.2,26.4,4.4L26.4,4.4z M24.8,5.3c1.2,0.1,2.3-0.6,4.5,0.2
				c0,0-0.9-0.5-1.8-0.6C26.6,4.9,25.7,5.2,24.8,5.3L24.8,5.3z"/>
		</g>
	</g>
</g>
</svg>
