<svg id="Layer_1" data-name="Layer 1" xmlns="http://www.w3.org/2000/svg" viewBox="0 0 800 800"><defs><style>.cls-1{fill:#e6325d;}.cls-1,.cls-2{fill-rule:evenodd;}.cls-2{fill:#28333f;}</style></defs><title>logo-mini</title><path class="cls-1" d="M262.92,123s8.95,6.25,18.59,23.39-12.52,31.64-20,47.18,19,24.91,12.47,74.79-81.23,137.13-107.41,241.2,40.92,279.64,40.92,279.64S276,676.67,391.24,689.85s248.29-67.56,248.29-67.56-126.41-24.7-200.95-152.65S353.9,319.91,380.23,261.22s38.25-103.59,17.56-126-38.35-.47-76.53-8.81-71.53-10.83-58.34-3.39Z"/><path class="cls-2" d="M312.32,90.85c-11.73,6.89-25.69,13-37,11.92C251.08,100.39,247,91.62,249.1,87.19s8-1.25,10.51-4.25-4.16-11.26-12.89-5-2.75,25.19,15.92,28.92,41.22-2.25,58-13.92,24.25-6.85,30,0,26.62,27,50.63,20.91,22.22-24.31,17.49-28.18-14.94-1.25-12.74,4,7,2.36,6.54,8-20.38,12.7-34.22,7-31.64-25.57-33-36.62,8.93-21.6,10.42-32-1.58-20.87-15.85-24.68S312.53,23.17,318.5,35s23.21,5.41,19.75-.91-8.3-4.45-7.7-9.64,17.41-7.91,18.64,5.21-8.41,22.43-12.93,29.85c-8.5,14-16.4,26.89-23.94,31.32Zm-37.54,20.63c27.3,3.3,52.83-13.71,102.8,5.42,0,0-19.66-10.41-40.16-13.26-20.23-2.81-41.4,5.79-62.64,7.84Z"/></svg>